<?xml version="1.0" encoding="utf-8"?>
<!-- Generator: Adobe Illustrator 24.0.2, SVG Export Plug-In . SVG Version: 6.00 Build 0)  -->
<svg version="1.1" id="Layer_1" xmlns="http://www.w3.org/2000/svg" xmlns:xlink="http://www.w3.org/1999/xlink" x="0px" y="0px"
	 viewBox="0 0 633.3 117.8" xml:space="preserve">
<style type="text/css">
	.st0{fill:#53575A;}
	.st1{fill:#6FB1C8;}
	.st2{fill:#1C355E;}
</style>
<g>
	<g>
		<path class="st0" d="M183.7,70.7c-0.5-0.5-0.8-1.3-0.1-1.9l9.5-9.9c0.5-0.6,1.3-0.6,1.9-0.1c5.6,4.1,13.3,8,22.3,8
			c8.9,0,13.9-3.8,13.9-9.2c0-4.6-3-7.4-13.2-8.7l-4.5-0.6c-17.3-2.2-27-9.6-27-23.3c0-14.3,11.8-23.7,30.2-23.7
			c11.3,0,21.8,3.1,29,8.1c0.8,0.5,0.9,0.9,0.3,1.7l-7.7,10.4c-0.5,0.6-1.1,0.7-1.8,0.3c-6.5-3.9-12.8-5.9-19.8-5.9
			c-7.5,0-11.4,3.5-11.4,8.4c0,4.4,3.5,7.3,13.3,8.6l4.5,0.6C240.7,35.7,250,43,250,57s-11.4,24.4-33.5,24.4
			C203.2,81.3,190.3,76.5,183.7,70.7z"/>
		<path class="st0" d="M294.6,80c-0.8,0-1.3-0.5-1.3-1.1v-4h-0.1c-3.1,3.8-7.9,6.4-15.6,6.4c-13.4,0-20.5-8.6-20.5-20.5V25.9
			c0-0.7,0.5-1.1,1.3-1.1h15.1c0.8,0,1.3,0.5,1.3,1.1v31.7c0,5.9,3.1,10,9.3,10c6,0,9.3-4,9.3-10V25.9c0-0.7,0.5-1.1,1.3-1.1h14.9
			c0.8,0,1.3,0.5,1.3,1.1v53c0,0.7-0.5,1.1-1.3,1.1H294.6z"/>
		<path class="st0" d="M323,100.5c-0.8,0-1.3-0.5-1.3-1.1V25.9c0-0.7,0.5-1.1,1.3-1.1h15.1c0.8,0,1.3,0.5,1.3,1.1v4h0.1
			c2.8-3.8,7.9-6.4,15.9-6.4c10.2,0,17.4,4.4,20.6,13.2c1.5,4.3,2.1,8.4,2.1,15.6c0,7.1-0.6,11.3-2.1,15.6
			c-3.1,8.7-10.4,13.2-20.6,13.2c-8,0-13.2-2.6-15.9-6.4h-0.1v24.5c0,0.7-0.5,1.1-1.3,1.1H323V100.5z M359.2,61.9
			c0.8-2.2,1.1-4.6,1.1-9.5s-0.4-7.3-1.1-9.5c-1.4-4-4.6-5.9-9.4-5.9c-4.6,0-7.9,1.9-9.3,5.9c-0.8,2.2-1.1,4.6-1.1,9.5
			s0.4,7.3,1.1,9.5c1.4,3.9,4.6,5.9,9.3,5.9S357.8,65.7,359.2,61.9z"/>
		<path class="st0" d="M385.6,65.5c-1.3-3.4-2.1-7.4-2.1-13.1c0-5.8,0.8-9.8,2-13.2c3.5-9.9,13.2-15.6,26.1-15.6
			c13.4,0,22.7,5.8,26.2,15.5c1.3,3.7,2,7.6,2,17c0,0.7-0.5,1.1-1.4,1.1h-36.8c-0.5,0-0.8,0.2-0.8,0.7c0.1,1.1,0.4,2.2,0.8,3.1
			c1.6,4.8,6.3,7.3,12.5,7.3c6,0,10.4-1.9,13.9-4.9c0.6-0.5,1.3-0.6,1.8,0l8.3,7.1c0.6,0.5,0.6,1.1,0.1,1.6
			c-5.8,5.6-14.7,9.2-25.8,9.2C398.7,81.3,389.2,75.4,385.6,65.5z M421.8,46.6c0.5,0,0.8-0.2,0.8-0.7c0-1.7-0.3-3-0.6-4.1
			c-1.4-3.8-5.1-6-10.2-6c-5,0-8.8,2.3-10.2,6c-0.4,1.1-0.6,2.4-0.6,4.1c0,0.5,0.3,0.7,0.8,0.7H421.8z"/>
		<path class="st0" d="M449.5,80c-0.8,0-1.3-0.5-1.3-1.1v-53c0-0.7,0.5-1.1,1.3-1.1h15.1c0.8,0,1.3,0.5,1.3,1.1v4.7h0.1
			c2.9-4.4,8.4-7.1,15.8-7.1c4,0,8,1.3,10.7,3.3c0.6,0.5,0.8,0.9,0.4,1.6l-7,11.6c-0.5,0.6-1,0.6-1.8,0.2c-2.9-1.7-5.8-2.6-8.8-2.5
			c-6.5,0.2-9.4,4.6-9.4,12v29.2c0,0.7-0.5,1.1-1.3,1.1H449.5z"/>
		<path class="st0" d="M498.6,16c-0.8,0-1.3-0.5-1.3-1.1V3.6c0-0.7,0.5-1.1,1.3-1.1h15c0.8,0,1.3,0.5,1.3,1.1v11.3
			c0,0.7-0.5,1.1-1.3,1.1H498.6z M498.6,80c-0.8,0-1.3-0.5-1.3-1.1v-53c0-0.7,0.5-1.1,1.3-1.1h15c0.8,0,1.3,0.5,1.3,1.1v53
			c0,0.7-0.5,1.1-1.3,1.1H498.6z"/>
		<path class="st0" d="M525.3,65.7c-1.4-4-2-7.9-2-13.3c0-5.5,0.6-9.4,2-13.3c3.5-10,13.6-15.5,26.3-15.5c12.8,0,22.8,5.5,26.3,15.5
			c1.4,4,2,7.9,2,13.3c0,5.5-0.6,9.4-2,13.3c-3.5,10-13.6,15.5-26.3,15.5C538.9,81.3,528.8,75.8,525.3,65.7z M561.1,61.9
			c0.9-2.5,1.1-4.8,1.1-9.5s-0.3-7-1.1-9.5c-1.4-3.9-4.8-5.9-9.4-5.9c-4.6,0-8,2.1-9.4,5.9c-0.9,2.5-1.1,4.8-1.1,9.5
			c0,4.7,0.3,7,1.1,9.5c1.4,3.9,4.8,5.9,9.4,5.9S559.7,65.7,561.1,61.9z"/>
		<path class="st0" d="M589.7,80c-0.8,0-1.3-0.5-1.3-1.1v-53c0-0.7,0.5-1.1,1.3-1.1h15.1c0.8,0,1.3,0.5,1.3,1.1v4.7h0.1
			c2.9-4.4,8.4-7.1,15.8-7.1c4,0,8,1.3,10.7,3.3c0.6,0.5,0.8,0.9,0.4,1.6l-7,11.6c-0.5,0.6-1,0.6-1.8,0.2c-2.9-1.7-5.8-2.6-8.8-2.5
			c-6.5,0.2-9.4,4.6-9.4,12v29.2c0,0.7-0.5,1.1-1.3,1.1H589.7z"/>
	</g>
	<path class="st1" d="M170.7,0H79.6c-11,0-19.5,3.5-24.3,9.3c0,0-0.1,0-0.1,0.1L28.7,41.9c-0.9,1.1,0,2,1.9,2h39
		c1.9,0,4.2-0.9,5.1-2l9.4-11.5c0.9-1.1,3.2-2,5.1-2h38.6c18.6,0,22.9-6.6,23.8-7.7c0,0,4.9-6.5,10.2-13c5.6-6.9,8.9-7.2,8.9-7.2
		L170.7,0L170.7,0z"/>
	<path class="st2" d="M0,82.4h91.1c11,0,19.5-3.5,24.3-9.3c0,0,0.1,0,0.1-0.1L142,40.4c0.9-1.1,0-2-1.9-2H101c-1.9,0-4.2,0.9-5.1,2
		L86.6,52c-0.9,1.1-3.2,2-5.1,2H42.9c-18.6,0-22.9,6.6-23.8,7.7c0,0-4.9,6.5-10.2,13C3.3,81.6,0,81.9,0,81.9S0,82.4,0,82.4z"/>
	<g>
		<path class="st0" d="M363.3,100.1c0-0.2,0.1-0.3,0.3-0.3H377c0.2,0,0.3,0.1,0.3,0.3v1.6c0,0.2-0.1,0.3-0.3,0.3h-10.6
			c-0.1,0-0.2,0.1-0.2,0.2v5.1c0,0.1,0.1,0.2,0.2,0.2h9c0.2,0,0.3,0.1,0.3,0.3v1.6c0,0.2-0.1,0.3-0.3,0.3h-9c-0.1,0-0.2,0.1-0.2,0.2
			v5.3c0,0.1,0.1,0.2,0.2,0.2H377c0.2,0,0.3,0.1,0.3,0.3v1.6c0,0.2-0.1,0.3-0.3,0.3h-13.4c-0.2,0-0.3-0.1-0.3-0.3V100.1z"/>
		<path class="st0" d="M380.7,100.1c0-0.2,0.1-0.3,0.3-0.3h2.1c0.3,0,0.4,0.1,0.6,0.3l10.1,13.1h0.1v-13.1c0-0.2,0.1-0.3,0.3-0.3
			h2.1c0.2,0,0.3,0.1,0.3,0.3V117c0,0.2-0.1,0.3-0.3,0.3h-2.1c-0.2,0-0.4-0.1-0.6-0.3l-10.1-13h-0.1v13c0,0.2-0.1,0.3-0.3,0.3H381
			c-0.2,0-0.3-0.1-0.3-0.3V100.1z"/>
		<path class="st0" d="M401.2,100.1c0-0.2,0.1-0.3,0.3-0.3h13.4c0.2,0,0.3,0.1,0.3,0.3v1.6c0,0.2-0.1,0.3-0.3,0.3h-10.6
			c-0.1,0-0.2,0.1-0.2,0.2v5.1c0,0.1,0.1,0.2,0.2,0.2h9c0.2,0,0.3,0.1,0.3,0.3v1.6c0,0.2-0.1,0.3-0.3,0.3h-9c-0.1,0-0.2,0.1-0.2,0.2
			v5.3c0,0.1,0.1,0.2,0.2,0.2h10.6c0.2,0,0.3,0.1,0.3,0.3v1.6c0,0.2-0.1,0.3-0.3,0.3h-13.4c-0.2,0-0.3-0.1-0.3-0.3V100.1z"/>
		<path class="st0" d="M431.6,117.3c-0.2,0-0.3-0.1-0.4-0.3l-4.5-7.1h-4.9c-0.1,0-0.2,0.1-0.2,0.2v7c0,0.2-0.1,0.3-0.3,0.3H419
			c-0.2,0-0.3-0.1-0.3-0.3v-16.9c0-0.2,0.1-0.3,0.3-0.3h8.1c4.2,0,7,2,7,5c0,2.4-1.7,4.1-4.4,4.8l4.8,7.4c0.1,0.2,0,0.3-0.2,0.3
			L431.6,117.3L431.6,117.3z M431.2,104.9c0-1.8-1.5-2.9-4.1-2.9h-5.2c-0.1,0-0.2,0.1-0.2,0.2v5.5c0,0.1,0.1,0.2,0.2,0.2h5.2
			C429.6,107.8,431.2,106.7,431.2,104.9z"/>
		<path class="st0" d="M437.1,108.6c0-2.9,0.2-3.9,0.6-4.9c1.1-2.7,3.9-4.1,7.6-4.1c3.9,0,6.3,1.5,7.4,3.5c0.1,0.2,0.1,0.3-0.1,0.4
			l-2,0.7c-0.2,0.1-0.4,0-0.5-0.1c-1.1-1.6-2.5-2.3-4.9-2.3c-2.5,0-4.1,0.9-4.8,2.6c-0.3,0.6-0.5,1.6-0.5,4.3c0,2.7,0.2,3.6,0.5,4.3
			c0.7,1.7,2.3,2.6,4.8,2.6c2.3,0,4.1-0.9,4.8-2.5c0.2-0.6,0.4-1.4,0.4-2.7c0-0.1-0.1-0.2-0.2-0.2h-4.3c-0.2,0-0.3-0.1-0.3-0.3v-1.5
			c0-0.2,0.1-0.3,0.3-0.3h7.1c0.2,0,0.3,0.1,0.3,0.3v1.3c0,1.6-0.2,3-0.6,3.9c-1.1,2.6-3.9,4.1-7.6,4.1c-3.8,0-6.5-1.4-7.6-4.1
			C437.3,112.5,437.1,111.4,437.1,108.6z"/>
		<path class="st0" d="M461.6,117.3c-0.2,0-0.3-0.1-0.3-0.3v-6.9l-6.6-10c-0.1-0.2,0-0.3,0.3-0.3h2.3c0.2,0,0.4,0.1,0.5,0.3l5,7.5
			h0.1l4.9-7.5c0.1-0.2,0.2-0.3,0.5-0.3h2.3c0.3,0,0.3,0.1,0.3,0.3l-6.6,10v6.9c0,0.2-0.1,0.3-0.3,0.3H461.6z"/>
		<path class="st0" d="M478.3,115.4c-0.1-0.1-0.2-0.3,0-0.4l1.4-1.3c0.1-0.1,0.3-0.1,0.5,0c1.4,0.9,3.7,1.8,6.2,1.8
			c3.1,0,4.9-1.2,4.9-3c0-1.5-1.1-2.5-4.7-2.8l-1.1-0.1c-4.3-0.5-6.6-2.1-6.6-4.8c0-3.1,2.9-5.1,7.3-5.1c2.6,0,5.1,0.7,6.8,1.6
			c0.2,0.1,0.2,0.2,0.1,0.4l-1.1,1.4c-0.1,0.1-0.3,0.1-0.5,0.1c-1.8-0.9-3.5-1.3-5.4-1.3c-2.7,0-4.2,1.2-4.2,2.8
			c0,1.5,1.2,2.4,4.7,2.8l1.1,0.1c4.4,0.5,6.6,2,6.6,4.9c0,3.1-2.8,5.3-8.1,5.3C483,117.6,480,116.6,478.3,115.4z"/>
		<path class="st0" d="M497.8,100.1c0-0.2,0.1-0.3,0.3-0.3h13.4c0.2,0,0.3,0.1,0.3,0.3v1.6c0,0.2-0.1,0.3-0.3,0.3h-10.6
			c-0.1,0-0.2,0.1-0.2,0.2v5.1c0,0.1,0.1,0.2,0.2,0.2h9c0.2,0,0.3,0.1,0.3,0.3v1.6c0,0.2-0.1,0.3-0.3,0.3h-9c-0.1,0-0.2,0.1-0.2,0.2
			v5.3c0,0.1,0.1,0.2,0.2,0.2h10.6c0.2,0,0.3,0.1,0.3,0.3v1.6c0,0.2-0.1,0.3-0.3,0.3h-13.4c-0.2,0-0.3-0.1-0.3-0.3L497.8,100.1
			L497.8,100.1z"/>
		<path class="st0" d="M528.2,117.3c-0.2,0-0.3-0.1-0.4-0.3l-4.5-7.1h-4.9c-0.1,0-0.2,0.1-0.2,0.2v7c0,0.2-0.1,0.3-0.3,0.3h-2.3
			c-0.2,0-0.3-0.1-0.3-0.3v-16.9c0-0.2,0.1-0.3,0.3-0.3h8.1c4.2,0,7,2,7,5c0,2.4-1.7,4.1-4.4,4.8l4.8,7.4c0.1,0.2,0,0.3-0.2,0.3
			L528.2,117.3L528.2,117.3z M527.7,104.9c0-1.8-1.5-2.9-4.1-2.9h-5.2c-0.1,0-0.2,0.1-0.2,0.2v5.5c0,0.1,0.1,0.2,0.2,0.2h5.2
			C526.2,107.8,527.7,106.7,527.7,104.9z"/>
		<path class="st0" d="M539.7,117.3c-0.2,0-0.3-0.1-0.4-0.3l-7.2-16.9c-0.1-0.2,0-0.3,0.2-0.3h2.2c0.3,0,0.4,0.1,0.5,0.3l5.7,13.5
			h0.1l5.5-13.5c0.1-0.2,0.2-0.3,0.4-0.3h2.3c0.2,0,0.3,0.1,0.2,0.3L542,117c-0.1,0.2-0.2,0.3-0.4,0.3H539.7z"/>
		<path class="st0" d="M551.6,100.1c0-0.2,0.1-0.3,0.3-0.3h2.3c0.2,0,0.3,0.1,0.3,0.3V117c0,0.2-0.1,0.3-0.3,0.3h-2.3
			c-0.2,0-0.3-0.1-0.3-0.3V100.1z"/>
		<path class="st0" d="M558.3,108.6c0-2.9,0.2-3.9,0.6-4.9c1.1-2.7,3.8-4.1,7.4-4.1c3.3,0,5.9,1.3,7.1,3.5c0.1,0.1,0,0.3-0.1,0.3
			l-2,0.7c-0.2,0.1-0.4,0-0.5-0.1c-0.9-1.4-2.3-2.3-4.6-2.3c-2.4,0-3.9,0.9-4.6,2.6c-0.3,0.7-0.4,1.6-0.4,4.3c0,2.7,0.1,3.6,0.4,4.3
			c0.7,1.6,2.2,2.6,4.6,2.6c2.3,0,3.7-1,4.6-2.3c0.1-0.1,0.3-0.2,0.5-0.1l2,0.7c0.2,0.1,0.2,0.2,0.1,0.3c-1.3,2.2-3.8,3.5-7.1,3.5
			c-3.6,0-6.3-1.4-7.4-4.1C558.4,112.5,558.3,111.5,558.3,108.6z"/>
		<path class="st0" d="M576.6,100.1c0-0.2,0.1-0.3,0.3-0.3h13.4c0.2,0,0.3,0.1,0.3,0.3v1.6c0,0.2-0.1,0.3-0.3,0.3h-10.6
			c-0.1,0-0.2,0.1-0.2,0.2v5.1c0,0.1,0.1,0.2,0.2,0.2h9c0.2,0,0.3,0.1,0.3,0.3v1.6c0,0.2-0.1,0.3-0.3,0.3h-9c-0.1,0-0.2,0.1-0.2,0.2
			v5.3c0,0.1,0.1,0.2,0.2,0.2h10.6c0.2,0,0.3,0.1,0.3,0.3v1.6c0,0.2-0.1,0.3-0.3,0.3h-13.4c-0.2,0-0.3-0.1-0.3-0.3V100.1z"/>
		<path class="st0" d="M593,115.4c-0.1-0.1-0.2-0.3,0-0.4l1.4-1.3c0.1-0.1,0.3-0.1,0.5,0c1.4,0.9,3.7,1.8,6.2,1.8
			c3.1,0,4.9-1.2,4.9-3c0-1.5-1.1-2.5-4.7-2.8l-1.1-0.1c-4.3-0.5-6.6-2.1-6.6-4.8c0-3.1,2.9-5.1,7.3-5.1c2.6,0,5.1,0.7,6.8,1.6
			c0.2,0.1,0.2,0.2,0.1,0.4l-1.1,1.4c-0.1,0.1-0.3,0.1-0.5,0.1c-1.8-0.9-3.5-1.3-5.4-1.3c-2.7,0-4.2,1.2-4.2,2.8
			c0,1.5,1.2,2.4,4.7,2.8l1.1,0.1c4.4,0.5,6.6,2,6.6,4.9c0,3.1-2.8,5.3-8.1,5.3C597.7,117.6,594.7,116.6,593,115.4z"/>
	</g>
</g>
</svg>
